<?xml version="1.0" encoding="UTF-8" standalone="no"?>
<!DOCTYPE svg PUBLIC "-//W3C//DTD SVG 1.1//EN"
 "http://www.w3.org/Graphics/SVG/1.1/DTD/svg11.dtd">
<!-- Generated by graphviz version 2.43.0 (0)
 -->
<!-- Title: wordcount03 Pages: 1 -->
<svg width="100%" height="100%" xmlns="http://www.w3.org/2000/svg" xmlns:xlink="http://www.w3.org/1999/xlink">
<script type="text/ecmascript"><![CDATA[
/**
 *  SVGPan library 1.2.2
 * ======================
 *
 * Given an unique existing element with id "viewport" (or when missing, the
 * first g-element), including the library into any SVG adds the following
 * capabilities:
 *
 *  - Mouse panning
 *  - Mouse zooming (using the wheel)
 *  - Object dragging
 *
 * You can configure the behaviour of the pan/zoom/drag with the variables
 * listed in the CONFIGURATION section of this file.
 *
 * Known issues:
 *
 *  - Zooming (while panning) on Safari has still some issues
 *
 * Releases:
 *
 * 1.2.2, Tue Aug 30 17:21:56 CEST 2011, Andrea Leofreddi
 *	- Fixed viewBox on root tag (#7)
 *	- Improved zoom speed (#2)
 *
 * 1.2.1, Mon Jul  4 00:33:18 CEST 2011, Andrea Leofreddi
 *	- Fixed a regression with mouse wheel (now working on Firefox 5)
 *	- Working with viewBox attribute (#4)
 *	- Added "use strict;" and fixed resulting warnings (#5)
 *	- Added configuration variables, dragging is disabled by default (#3)
 *
 * 1.2, Sat Mar 20 08:42:50 GMT 2010, Zeng Xiaohui
 *	Fixed a bug with browser mouse handler interaction
 *
 * 1.1, Wed Feb  3 17:39:33 GMT 2010, Zeng Xiaohui
 *	Updated the zoom code to support the mouse wheel on Safari/Chrome
 *
 * 1.0, Andrea Leofreddi
 *	First release
 *
 * This code is licensed under the following BSD license:
 *
 * Copyright 2009-2017 Andrea Leofreddi <a.leofreddi@vleo.net>. All rights reserved.
 *
 * Redistribution and use in source and binary forms, with or without modification, are
 * permitted provided that the following conditions are met:
 *
 *    1. Redistributions of source code must retain the above copyright
 *       notice, this list of conditions and the following disclaimer.
 *    2. Redistributions in binary form must reproduce the above copyright
 *       notice, this list of conditions and the following disclaimer in the
 *       documentation and/or other materials provided with the distribution.
 *    3. Neither the name of the copyright holder nor the names of its
 *       contributors may be used to endorse or promote products derived from
 *       this software without specific prior written permission.
 *
 * THIS SOFTWARE IS PROVIDED BY COPYRIGHT HOLDERS AND CONTRIBUTORS ''AS IS'' AND ANY EXPRESS
 * OR IMPLIED WARRANTIES, INCLUDING, BUT NOT LIMITED TO, THE IMPLIED WARRANTIES OF MERCHANTABILITY
 * AND FITNESS FOR A PARTICULAR PURPOSE ARE DISCLAIMED. IN NO EVENT SHALL COPYRIGHT HOLDERS OR
 * CONTRIBUTORS BE LIABLE FOR ANY DIRECT, INDIRECT, INCIDENTAL, SPECIAL, EXEMPLARY, OR
 * CONSEQUENTIAL DAMAGES (INCLUDING, BUT NOT LIMITED TO, PROCUREMENT OF SUBSTITUTE GOODS OR
 * SERVICES; LOSS OF USE, DATA, OR PROFITS; OR BUSINESS INTERRUPTION) HOWEVER CAUSED AND ON
 * ANY THEORY OF LIABILITY, WHETHER IN CONTRACT, STRICT LIABILITY, OR TORT (INCLUDING
 * NEGLIGENCE OR OTHERWISE) ARISING IN ANY WAY OUT OF THE USE OF THIS SOFTWARE, EVEN IF
 * ADVISED OF THE POSSIBILITY OF SUCH DAMAGE.
 *
 * The views and conclusions contained in the software and documentation are those of the
 * authors and should not be interpreted as representing official policies, either expressed
 * or implied, of Andrea Leofreddi.
 */

"use strict";

/// CONFIGURATION
/// ====>

var enablePan = 1; // 1 or 0: enable or disable panning (default enabled)
var enableZoom = 1; // 1 or 0: enable or disable zooming (default enabled)
var enableDrag = 0; // 1 or 0: enable or disable dragging (default disabled)
var zoomScale = 0.2; // Zoom sensitivity

/// <====
/// END OF CONFIGURATION

var root = document.documentElement;

var state = 'none', svgRoot = null, stateTarget, stateOrigin, stateTf;

setupHandlers(root);

/**
 * Register handlers
 */
function setupHandlers(root){
	setAttributes(root, {
		"onmouseup" : "handleMouseUp(evt)",
		"onmousedown" : "handleMouseDown(evt)",
		"onmousemove" : "handleMouseMove(evt)",
		//"onmouseout" : "handleMouseUp(evt)", // Decomment this to stop the pan functionality when dragging out of the SVG element
	});

	if(navigator.userAgent.toLowerCase().indexOf('webkit') >= 0)
		window.addEventListener('mousewheel', handleMouseWheel, false); // Chrome/Safari
	else
		window.addEventListener('DOMMouseScroll', handleMouseWheel, false); // Others
}

/**
 * Retrieves the root element for SVG manipulation. The element is then cached into the svgRoot global variable.
 */
function getRoot(root) {
	if(svgRoot == null) {
		var r = root.getElementById("viewport") ? root.getElementById("viewport") : root.documentElement, t = r;

		while(t != root) {
			if(t.getAttribute("viewBox")) {
				setCTM(r, t.getCTM());

				t.removeAttribute("viewBox");
			}

			t = t.parentNode;
		}

		svgRoot = r;
	}

	return svgRoot;
}

/**
 * Instance an SVGPoint object with given event coordinates.
 */
function getEventPoint(evt) {
	var p = root.createSVGPoint();

	p.x = evt.clientX;
	p.y = evt.clientY;

	return p;
}

/**
 * Sets the current transform matrix of an element.
 */
function setCTM(element, matrix) {
	var s = "matrix(" + matrix.a + "," + matrix.b + "," + matrix.c + "," + matrix.d + "," + matrix.e + "," + matrix.f + ")";

	element.setAttribute("transform", s);
}

/**
 * Dumps a matrix to a string (useful for debug).
 */
function dumpMatrix(matrix) {
	var s = "[ " + matrix.a + ", " + matrix.c + ", " + matrix.e + "\n  " + matrix.b + ", " + matrix.d + ", " + matrix.f + "\n  0, 0, 1 ]";

	return s;
}

/**
 * Sets attributes of an element.
 */
function setAttributes(element, attributes){
	for (var i in attributes)
		element.setAttributeNS(null, i, attributes[i]);
}

/**
 * Handle mouse wheel event.
 */
function handleMouseWheel(evt) {
	if(!enableZoom)
		return;

	if(evt.preventDefault)
		evt.preventDefault();

	evt.returnValue = false;

	var svgDoc = evt.target.ownerDocument;

	var delta;

	if(evt.wheelDelta)
		delta = evt.wheelDelta / 360; // Chrome/Safari
	else
		delta = evt.detail / -9; // Mozilla

	var z = Math.pow(1 + zoomScale, delta);

	var g = getRoot(svgDoc);
	
	var p = getEventPoint(evt);

	p = p.matrixTransform(g.getCTM().inverse());

	// Compute new scale matrix in current mouse position
	var k = root.createSVGMatrix().translate(p.x, p.y).scale(z).translate(-p.x, -p.y);

        setCTM(g, g.getCTM().multiply(k));

	if(typeof(stateTf) == "undefined")
		stateTf = g.getCTM().inverse();

	stateTf = stateTf.multiply(k.inverse());
}

/**
 * Handle mouse move event.
 */
function handleMouseMove(evt) {
	if(evt.preventDefault)
		evt.preventDefault();

	evt.returnValue = false;

	var svgDoc = evt.target.ownerDocument;

	var g = getRoot(svgDoc);

	if(state == 'pan' && enablePan) {
		// Pan mode
		var p = getEventPoint(evt).matrixTransform(stateTf);

		setCTM(g, stateTf.inverse().translate(p.x - stateOrigin.x, p.y - stateOrigin.y));
	} else if(state == 'drag' && enableDrag) {
		// Drag mode
		var p = getEventPoint(evt).matrixTransform(g.getCTM().inverse());

		setCTM(stateTarget, root.createSVGMatrix().translate(p.x - stateOrigin.x, p.y - stateOrigin.y).multiply(g.getCTM().inverse()).multiply(stateTarget.getCTM()));

		stateOrigin = p;
	}
}

/**
 * Handle click event.
 */
function handleMouseDown(evt) {
	if(evt.preventDefault)
		evt.preventDefault();

	evt.returnValue = false;

	var svgDoc = evt.target.ownerDocument;

	var g = getRoot(svgDoc);

	if(
		evt.target.tagName == "svg"
		|| !enableDrag // Pan anyway when drag is disabled and the user clicked on an element
	) {
		// Pan mode
		state = 'pan';

		stateTf = g.getCTM().inverse();

		stateOrigin = getEventPoint(evt).matrixTransform(stateTf);
	} else {
		// Drag mode
		state = 'drag';

		stateTarget = evt.target;

		stateTf = g.getCTM().inverse();

		stateOrigin = getEventPoint(evt).matrixTransform(stateTf);
	}
}

/**
 * Handle mouse button release event.
 */
function handleMouseUp(evt) {
	if(evt.preventDefault)
		evt.preventDefault();

	evt.returnValue = false;

	var svgDoc = evt.target.ownerDocument;

	if(state == 'pan' || state == 'drag') {
		// Quit pan mode
		state = '';
	}
}
]]></script><g id="viewport" transform="scale(0.5,0.5) translate(0,0)"><g id="graph0" class="graph" transform="scale(1 1) rotate(0) translate(4 1129.5)">
<title>wordcount03</title>
<polygon fill="white" stroke="transparent" points="-4,4 -4,-1129.5 1409.5,-1129.5 1409.5,4 -4,4"/>
<g id="clust1" class="cluster">
<title>cluster_L</title>
<polygon fill="none" stroke="black" points="8,-984.5 8,-1117.5 562,-1117.5 562,-984.5 8,-984.5"/>
</g>
<!-- File: wordcount03 -->
<g id="node1" class="node">
<title>File: wordcount03</title>
<g id="a_node1"><a xlink:title="wordcount03">
<polygon fill="#f8f8f8" stroke="black" points="553.5,-1109.5 16.5,-1109.5 16.5,-992.5 553.5,-992.5 553.5,-1109.5"/>
<text text-anchor="start" x="24.5" y="-1092.7" font-family="Times,serif" font-size="16.00">File: wordcount03</text>
<text text-anchor="start" x="24.5" y="-1074.7" font-family="Times,serif" font-size="16.00">Type: inuse_space</text>
<text text-anchor="start" x="24.5" y="-1056.7" font-family="Times,serif" font-size="16.00">Time: Mar 10, 2023 at 10:51am (UTC)</text>
<text text-anchor="start" x="24.5" y="-1038.7" font-family="Times,serif" font-size="16.00">Showing nodes accounting for 20.83kB, 100% of 20.83kB total</text>
<text text-anchor="start" x="24.5" y="-1001.7" font-family="Times,serif" font-size="16.00">See https://git.io/JfYMW for how to read the graph</text>
</a>
</g>
</g>
<!-- N1 -->
<g id="node1" class="node">
<title>N1</title>
<g id="a_node1"><a xlink:title="github.com/pkg/profile.Start.func11 (8.09kB)">
<polygon fill="#eddbd5" stroke="#b22c00" points="820,-1120 572,-1120 572,-982 820,-982 820,-1120"/>
<text text-anchor="middle" x="696" y="-1096.8" font-family="Times,serif" font-size="24.00">profile</text>
<text text-anchor="middle" x="696" y="-1070.8" font-family="Times,serif" font-size="24.00">Start</text>
<text text-anchor="middle" x="696" y="-1044.8" font-family="Times,serif" font-size="24.00">func11</text>
<text text-anchor="middle" x="696" y="-1018.8" font-family="Times,serif" font-size="24.00">4.05kB (19.43%)</text>
<text text-anchor="middle" x="696" y="-992.8" font-family="Times,serif" font-size="24.00">of 8.09kB (38.86%)</text>
</a>
</g>
</g>
<!-- NN1_0 -->
<g id="NN1_0" class="node">
<title>NN1_0</title>
<g id="a_NN1_0"><a xlink:title="4.05kB">
<polygon fill="#f8f8f8" stroke="black" points="723,-927 673,-927 669,-923 669,-891 719,-891 723,-895 723,-927"/>
<polyline fill="none" stroke="black" points="719,-923 669,-923 "/>
<polyline fill="none" stroke="black" points="719,-923 719,-891 "/>
<polyline fill="none" stroke="black" points="719,-923 723,-927 "/>
<text text-anchor="middle" x="696" y="-907.1" font-family="Times,serif" font-size="8.00">96B</text>
</a>
</g>
</g>
<!-- N1&#45;&gt;NN1_0 -->
<g id="edge1" class="edge">
<title>N1&#45;&gt;NN1_0</title>
<g id="a_edge1"><a xlink:title="4.05kB">
<path fill="none" stroke="black" d="M696,-981.64C696,-965.96 696,-950.18 696,-937.43"/>
<polygon fill="black" stroke="black" points="699.5,-937.09 696,-927.09 692.5,-937.09 699.5,-937.09"/>
</a>
</g>
<g id="a_edge1&#45;label"><a xlink:title="4.05kB">
<text text-anchor="middle" x="723.5" y="-952.8" font-family="Times,serif" font-size="14.00"> 4.05kB</text>
</a>
</g>
</g>
<!-- N12 -->
<g id="node12" class="node">
<title>N12</title>
<g id="a_node12"><a xlink:title="os/signal.Notify (4.05kB)">
<polygon fill="#eddfd6" stroke="#b24805" points="816.5,-836 715.5,-836 715.5,-800 816.5,-800 816.5,-836"/>
<text text-anchor="middle" x="766" y="-825.1" font-family="Times,serif" font-size="8.00">signal</text>
<text text-anchor="middle" x="766" y="-816.1" font-family="Times,serif" font-size="8.00">Notify</text>
<text text-anchor="middle" x="766" y="-807.1" font-family="Times,serif" font-size="8.00">0 of 4.05kB (19.43%)</text>
</a>
</g>
</g>
<!-- N1&#45;&gt;N12 -->
<g id="edge17" class="edge">
<title>N1&#45;&gt;N12</title>
<g id="a_edge17"><a xlink:title="github.com/pkg/profile.Start.func11 &#45;&gt; os/signal.Notify (4.05kB)">
<path fill="none" stroke="#b24805" d="M744.54,-981.54C747.4,-975.77 749.94,-969.89 752,-964 765.77,-924.67 767.61,-875.9 767.18,-846.14"/>
<polygon fill="#b24805" stroke="#b24805" points="770.68,-845.99 766.93,-836.08 763.68,-846.17 770.68,-845.99"/>
</a>
</g>
<g id="a_edge17&#45;label"><a xlink:title="github.com/pkg/profile.Start.func11 &#45;&gt; os/signal.Notify (4.05kB)">
<text text-anchor="middle" x="794.5" y="-905.3" font-family="Times,serif" font-size="14.00"> 4.05kB</text>
</a>
</g>
</g>
<!-- N2 -->
<g id="node2" class="node">
<title>N2</title>
<g id="a_node2"><a xlink:title="runtime.allocm (4.52kB)">
<polygon fill="#edded5" stroke="#b24100" points="1051.5,-173 834.5,-173 834.5,-87 1051.5,-87 1051.5,-173"/>
<text text-anchor="middle" x="943" y="-149.8" font-family="Times,serif" font-size="24.00">runtime</text>
<text text-anchor="middle" x="943" y="-123.8" font-family="Times,serif" font-size="24.00">allocm</text>
<text text-anchor="middle" x="943" y="-97.8" font-family="Times,serif" font-size="24.00">4.52kB (21.70%)</text>
</a>
</g>
</g>
<!-- NN2_0 -->
<g id="NN2_0" class="node">
<title>NN2_0</title>
<g id="a_NN2_0"><a xlink:title="4.52kB">
<polygon fill="#f8f8f8" stroke="black" points="970,-36 920,-36 916,-32 916,0 966,0 970,-4 970,-36"/>
<polyline fill="none" stroke="black" points="966,-32 916,-32 "/>
<polyline fill="none" stroke="black" points="966,-32 966,0 "/>
<polyline fill="none" stroke="black" points="966,-32 970,-36 "/>
<text text-anchor="middle" x="943" y="-16.1" font-family="Times,serif" font-size="8.00">1kB</text>
</a>
</g>
</g>
<!-- N2&#45;&gt;NN2_0 -->
<g id="edge2" class="edge">
<title>N2&#45;&gt;NN2_0</title>
<g id="a_edge2"><a xlink:title="4.52kB">
<path fill="none" stroke="black" d="M943,-86.79C943,-73.2 943,-58.5 943,-46.28"/>
<polygon fill="black" stroke="black" points="946.5,-46.27 943,-36.27 939.5,-46.27 946.5,-46.27"/>
</a>
</g>
<g id="a_edge2&#45;label"><a xlink:title="4.52kB">
<text text-anchor="middle" x="970.5" y="-57.8" font-family="Times,serif" font-size="14.00"> 4.52kB</text>
</a>
</g>
</g>
<!-- N3 -->
<g id="node3" class="node">
<title>N3</title>
<g id="a_node3"><a xlink:title="runtime.malg (4.21kB)">
<polygon fill="#edded5" stroke="#b24400" points="1228.5,-749 1011.5,-749 1011.5,-663 1228.5,-663 1228.5,-749"/>
<text text-anchor="middle" x="1120" y="-725.8" font-family="Times,serif" font-size="24.00">runtime</text>
<text text-anchor="middle" x="1120" y="-699.8" font-family="Times,serif" font-size="24.00">malg</text>
<text text-anchor="middle" x="1120" y="-673.8" font-family="Times,serif" font-size="24.00">4.21kB (20.19%)</text>
</a>
</g>
</g>
<!-- NN3_0 -->
<g id="NN3_0" class="node">
<title>NN3_0</title>
<g id="a_NN3_0"><a xlink:title="4.21kB">
<polygon fill="#f8f8f8" stroke="black" points="1147,-597 1097,-597 1093,-593 1093,-561 1143,-561 1147,-565 1147,-597"/>
<polyline fill="none" stroke="black" points="1143,-593 1093,-593 "/>
<polyline fill="none" stroke="black" points="1143,-593 1143,-561 "/>
<polyline fill="none" stroke="black" points="1143,-593 1147,-597 "/>
<text text-anchor="middle" x="1120" y="-577.1" font-family="Times,serif" font-size="8.00">416B</text>
</a>
</g>
</g>
<!-- N3&#45;&gt;NN3_0 -->
<g id="edge3" class="edge">
<title>N3&#45;&gt;NN3_0</title>
<g id="a_edge3"><a xlink:title="4.21kB">
<path fill="none" stroke="black" d="M1120,-662.68C1120,-644.5 1120,-623.76 1120,-607.6"/>
<polygon fill="black" stroke="black" points="1123.5,-607.23 1120,-597.23 1116.5,-607.23 1123.5,-607.23"/>
</a>
</g>
<g id="a_edge3&#45;label"><a xlink:title="4.21kB">
<text text-anchor="middle" x="1147.5" y="-626.3" font-family="Times,serif" font-size="14.00"> 4.21kB</text>
</a>
</g>
</g>
<!-- N4 -->
<g id="node4" class="node">
<title>N4</title>
<g id="a_node4"><a xlink:title="os/signal.signal_enable (4.05kB)">
<polygon fill="#eddfd6" stroke="#b24805" points="874.5,-497 657.5,-497 657.5,-411 874.5,-411 874.5,-497"/>
<text text-anchor="middle" x="766" y="-473.8" font-family="Times,serif" font-size="24.00">signal</text>
<text text-anchor="middle" x="766" y="-447.8" font-family="Times,serif" font-size="24.00">signal_enable</text>
<text text-anchor="middle" x="766" y="-421.8" font-family="Times,serif" font-size="24.00">4.05kB (19.43%)</text>
</a>
</g>
</g>
<!-- NN4_0 -->
<g id="NN4_0" class="node">
<title>NN4_0</title>
<g id="a_NN4_0"><a xlink:title="4.05kB">
<polygon fill="#f8f8f8" stroke="black" points="793,-347 743,-347 739,-343 739,-311 789,-311 793,-315 793,-347"/>
<polyline fill="none" stroke="black" points="789,-343 739,-343 "/>
<polyline fill="none" stroke="black" points="789,-343 789,-311 "/>
<polyline fill="none" stroke="black" points="789,-343 793,-347 "/>
<text text-anchor="middle" x="766" y="-327.1" font-family="Times,serif" font-size="8.00">96B</text>
</a>
</g>
</g>
<!-- N4&#45;&gt;NN4_0 -->
<g id="edge4" class="edge">
<title>N4&#45;&gt;NN4_0</title>
<g id="a_edge4"><a xlink:title="4.05kB">
<path fill="none" stroke="black" d="M766,-410.67C766,-392.94 766,-372.85 766,-357.15"/>
<polygon fill="black" stroke="black" points="769.5,-357.07 766,-347.07 762.5,-357.07 769.5,-357.07"/>
</a>
</g>
<g id="a_edge4&#45;label"><a xlink:title="4.05kB">
<text text-anchor="middle" x="793.5" y="-368.8" font-family="Times,serif" font-size="14.00"> 4.05kB</text>
</a>
</g>
</g>
<!-- N5 -->
<g id="node5" class="node">
<title>N5</title>
<g id="a_node5"><a xlink:title="net.IP.Mask (4.01kB)">
<polygon fill="#eddfd6" stroke="#b24906" points="1405.5,-510 1188.5,-510 1188.5,-398 1405.5,-398 1405.5,-510"/>
<text text-anchor="middle" x="1297" y="-486.8" font-family="Times,serif" font-size="24.00">net</text>
<text text-anchor="middle" x="1297" y="-460.8" font-family="Times,serif" font-size="24.00">IP</text>
<text text-anchor="middle" x="1297" y="-434.8" font-family="Times,serif" font-size="24.00">Mask</text>
<text text-anchor="middle" x="1297" y="-408.8" font-family="Times,serif" font-size="24.00">4.01kB (19.24%)</text>
</a>
</g>
</g>
<!-- NN5_0 -->
<g id="NN5_0" class="node">
<title>NN5_0</title>
<g id="a_NN5_0"><a xlink:title="4.01kB">
<polygon fill="#f8f8f8" stroke="black" points="1324,-347 1274,-347 1270,-343 1270,-311 1320,-311 1324,-315 1324,-347"/>
<polyline fill="none" stroke="black" points="1320,-343 1270,-343 "/>
<polyline fill="none" stroke="black" points="1320,-343 1320,-311 "/>
<polyline fill="none" stroke="black" points="1320,-343 1324,-347 "/>
<text text-anchor="middle" x="1297" y="-327.1" font-family="Times,serif" font-size="8.00">16B</text>
</a>
</g>
</g>
<!-- N5&#45;&gt;NN5_0 -->
<g id="edge5" class="edge">
<title>N5&#45;&gt;NN5_0</title>
<g id="a_edge5"><a xlink:title="4.01kB">
<path fill="none" stroke="black" d="M1297,-397.98C1297,-383.87 1297,-369.31 1297,-357.3"/>
<polygon fill="black" stroke="black" points="1300.5,-357.07 1297,-347.07 1293.5,-357.07 1300.5,-357.07"/>
</a>
</g>
<g id="a_edge5&#45;label"><a xlink:title="4.01kB">
<text text-anchor="middle" x="1324.5" y="-368.8" font-family="Times,serif" font-size="14.00"> 4.01kB</text>
</a>
</g>
</g>
<!-- N6 -->
<g id="node6" class="node">
<title>N6</title>
<g id="a_node6"><a xlink:title="runtime.mstart (4.52kB)">
<polygon fill="#edded5" stroke="#b24100" points="993.5,-1069 892.5,-1069 892.5,-1033 993.5,-1033 993.5,-1069"/>
<text text-anchor="middle" x="943" y="-1058.1" font-family="Times,serif" font-size="8.00">runtime</text>
<text text-anchor="middle" x="943" y="-1049.1" font-family="Times,serif" font-size="8.00">mstart</text>
<text text-anchor="middle" x="943" y="-1040.1" font-family="Times,serif" font-size="8.00">0 of 4.52kB (21.70%)</text>
</a>
</g>
</g>
<!-- N16 -->
<g id="node16" class="node">
<title>N16</title>
<g id="a_node16"><a xlink:title="runtime.mstart0 (4.52kB)">
<polygon fill="#edded5" stroke="#b24100" points="993.5,-927 892.5,-927 892.5,-891 993.5,-891 993.5,-927"/>
<text text-anchor="middle" x="943" y="-916.1" font-family="Times,serif" font-size="8.00">runtime</text>
<text text-anchor="middle" x="943" y="-907.1" font-family="Times,serif" font-size="8.00">mstart0</text>
<text text-anchor="middle" x="943" y="-898.1" font-family="Times,serif" font-size="8.00">0 of 4.52kB (21.70%)</text>
</a>
</g>
</g>
<!-- N6&#45;&gt;N16 -->
<g id="edge6" class="edge">
<title>N6&#45;&gt;N16</title>
<g id="a_edge6"><a xlink:title="runtime.mstart &#45;&gt; runtime.mstart0 (4.52kB)">
<path fill="none" stroke="#b24100" stroke-width="2" d="M943,-1032.83C943,-1009.01 943,-965.66 943,-937.35"/>
<polygon fill="#b24100" stroke="#b24100" stroke-width="2" points="946.5,-937.31 943,-927.31 939.5,-937.31 946.5,-937.31"/>
</a>
</g>
<g id="a_edge6&#45;label"><a xlink:title="runtime.mstart &#45;&gt; runtime.mstart0 (4.52kB)">
<text text-anchor="middle" x="970.5" y="-952.8" font-family="Times,serif" font-size="14.00"> 4.52kB</text>
</a>
</g>
</g>
<!-- N7 -->
<g id="node7" class="node">
<title>N7</title>
<g id="a_node7"><a xlink:title="runtime.systemstack (4.21kB)">
<polygon fill="#edded5" stroke="#b24400" points="1170.5,-1069 1069.5,-1069 1069.5,-1033 1170.5,-1033 1170.5,-1069"/>
<text text-anchor="middle" x="1120" y="-1058.1" font-family="Times,serif" font-size="8.00">runtime</text>
<text text-anchor="middle" x="1120" y="-1049.1" font-family="Times,serif" font-size="8.00">systemstack</text>
<text text-anchor="middle" x="1120" y="-1040.1" font-family="Times,serif" font-size="8.00">0 of 4.21kB (20.19%)</text>
</a>
</g>
</g>
<!-- N19 -->
<g id="node19" class="node">
<title>N19</title>
<g id="a_node19"><a xlink:title="runtime.newproc.func1 (4.21kB)">
<polygon fill="#edded5" stroke="#b24400" points="1170.5,-931 1069.5,-931 1069.5,-887 1170.5,-887 1170.5,-931"/>
<text text-anchor="middle" x="1120" y="-920.6" font-family="Times,serif" font-size="8.00">runtime</text>
<text text-anchor="middle" x="1120" y="-911.6" font-family="Times,serif" font-size="8.00">newproc</text>
<text text-anchor="middle" x="1120" y="-902.6" font-family="Times,serif" font-size="8.00">func1</text>
<text text-anchor="middle" x="1120" y="-893.6" font-family="Times,serif" font-size="8.00">0 of 4.21kB (20.19%)</text>
</a>
</g>
</g>
<!-- N7&#45;&gt;N19 -->
<g id="edge16" class="edge">
<title>N7&#45;&gt;N19</title>
<g id="a_edge16"><a xlink:title="runtime.systemstack &#45;&gt; runtime.newproc.func1 (4.21kB)">
<path fill="none" stroke="#b24400" stroke-width="2" d="M1120,-1032.83C1120,-1010.17 1120,-969.85 1120,-941.61"/>
<polygon fill="#b24400" stroke="#b24400" stroke-width="2" points="1123.5,-941.43 1120,-931.43 1116.5,-941.43 1123.5,-941.43"/>
</a>
</g>
<g id="a_edge16&#45;label"><a xlink:title="runtime.systemstack &#45;&gt; runtime.newproc.func1 (4.21kB)">
<text text-anchor="middle" x="1147.5" y="-952.8" font-family="Times,serif" font-size="14.00"> 4.21kB</text>
</a>
</g>
</g>
<!-- N8 -->
<g id="node8" class="node">
<title>N8</title>
<g id="a_node8"><a xlink:title="runtime.main (4.01kB)">
<polygon fill="#eddfd6" stroke="#b24906" points="1347.5,-1069 1246.5,-1069 1246.5,-1033 1347.5,-1033 1347.5,-1069"/>
<text text-anchor="middle" x="1297" y="-1058.1" font-family="Times,serif" font-size="8.00">runtime</text>
<text text-anchor="middle" x="1297" y="-1049.1" font-family="Times,serif" font-size="8.00">main</text>
<text text-anchor="middle" x="1297" y="-1040.1" font-family="Times,serif" font-size="8.00">0 of 4.01kB (19.24%)</text>
</a>
</g>
</g>
<!-- N15 -->
<g id="node15" class="node">
<title>N15</title>
<g id="a_node15"><a xlink:title="runtime.doInit (4.01kB)">
<polygon fill="#eddfd6" stroke="#b24906" points="1347.5,-927 1246.5,-927 1246.5,-891 1347.5,-891 1347.5,-927"/>
<text text-anchor="middle" x="1297" y="-916.1" font-family="Times,serif" font-size="8.00">runtime</text>
<text text-anchor="middle" x="1297" y="-907.1" font-family="Times,serif" font-size="8.00">doInit</text>
<text text-anchor="middle" x="1297" y="-898.1" font-family="Times,serif" font-size="8.00">0 of 4.01kB (19.24%)</text>
</a>
</g>
</g>
<!-- N8&#45;&gt;N15 -->
<g id="edge25" class="edge">
<title>N8&#45;&gt;N15</title>
<g id="a_edge25"><a xlink:title="runtime.main &#45;&gt; runtime.doInit (4.01kB)">
<path fill="none" stroke="#b24906" d="M1297,-1032.83C1297,-1009.01 1297,-965.66 1297,-937.35"/>
<polygon fill="#b24906" stroke="#b24906" points="1300.5,-937.31 1297,-927.31 1293.5,-937.31 1300.5,-937.31"/>
</a>
</g>
<g id="a_edge25&#45;label"><a xlink:title="runtime.main &#45;&gt; runtime.doInit (4.01kB)">
<text text-anchor="middle" x="1324.5" y="-952.8" font-family="Times,serif" font-size="14.00"> 4.01kB</text>
</a>
</g>
</g>
<!-- N9 -->
<g id="node9" class="node">
<title>N9</title>
<g id="a_node9"><a xlink:title="net.ParseCIDR (4.01kB)">
<polygon fill="#eddfd6" stroke="#b24906" points="1347.5,-597 1246.5,-597 1246.5,-561 1347.5,-561 1347.5,-597"/>
<text text-anchor="middle" x="1297" y="-586.1" font-family="Times,serif" font-size="8.00">net</text>
<text text-anchor="middle" x="1297" y="-577.1" font-family="Times,serif" font-size="8.00">ParseCIDR</text>
<text text-anchor="middle" x="1297" y="-568.1" font-family="Times,serif" font-size="8.00">0 of 4.01kB (19.24%)</text>
</a>
</g>
</g>
<!-- N9&#45;&gt;N5 -->
<g id="edge21" class="edge">
<title>N9&#45;&gt;N5</title>
<g id="a_edge21"><a xlink:title="net.ParseCIDR &#45;&gt; net.IP.Mask (4.01kB)">
<path fill="none" stroke="#b24906" d="M1297,-560.9C1297,-550.12 1297,-535.44 1297,-520.45"/>
<polygon fill="#b24906" stroke="#b24906" points="1300.5,-520.06 1297,-510.06 1293.5,-520.06 1300.5,-520.06"/>
</a>
</g>
<g id="a_edge21&#45;label"><a xlink:title="net.ParseCIDR &#45;&gt; net.IP.Mask (4.01kB)">
<text text-anchor="middle" x="1324.5" y="-531.8" font-family="Times,serif" font-size="14.00"> 4.01kB</text>
</a>
</g>
</g>
<!-- N10 -->
<g id="node10" class="node">
<title>N10</title>
<g id="a_node10"><a xlink:title="net.init (4.01kB)">
<polygon fill="#eddfd6" stroke="#b24906" points="1347.5,-836 1246.5,-836 1246.5,-800 1347.5,-800 1347.5,-836"/>
<text text-anchor="middle" x="1297" y="-825.1" font-family="Times,serif" font-size="8.00">net</text>
<text text-anchor="middle" x="1297" y="-816.1" font-family="Times,serif" font-size="8.00">init</text>
<text text-anchor="middle" x="1297" y="-807.1" font-family="Times,serif" font-size="8.00">0 of 4.01kB (19.24%)</text>
</a>
</g>
</g>
<!-- N11 -->
<g id="node11" class="node">
<title>N11</title>
<g id="a_node11"><a xlink:title="net.mustCIDR (4.01kB)">
<polygon fill="#eddfd6" stroke="#b24906" points="1347.5,-724 1246.5,-724 1246.5,-688 1347.5,-688 1347.5,-724"/>
<text text-anchor="middle" x="1297" y="-713.1" font-family="Times,serif" font-size="8.00">net</text>
<text text-anchor="middle" x="1297" y="-704.1" font-family="Times,serif" font-size="8.00">mustCIDR</text>
<text text-anchor="middle" x="1297" y="-695.1" font-family="Times,serif" font-size="8.00">0 of 4.01kB (19.24%)</text>
</a>
</g>
</g>
<!-- N10&#45;&gt;N11 -->
<g id="edge22" class="edge">
<title>N10&#45;&gt;N11</title>
<g id="a_edge22"><a xlink:title="net.init &#45;&gt; net.mustCIDR (4.01kB)">
<path fill="none" stroke="#b24906" d="M1297,-799.81C1297,-782.21 1297,-754.61 1297,-734.07"/>
<polygon fill="#b24906" stroke="#b24906" points="1300.5,-734.07 1297,-724.07 1293.5,-734.07 1300.5,-734.07"/>
</a>
</g>
<g id="a_edge22&#45;label"><a xlink:title="net.init &#45;&gt; net.mustCIDR (4.01kB)">
<text text-anchor="middle" x="1324.5" y="-770.8" font-family="Times,serif" font-size="14.00"> 4.01kB</text>
</a>
</g>
</g>
<!-- N11&#45;&gt;N9 -->
<g id="edge23" class="edge">
<title>N11&#45;&gt;N9</title>
<g id="a_edge23"><a xlink:title="net.mustCIDR &#45;&gt; net.ParseCIDR (4.01kB)">
<path fill="none" stroke="#b24906" d="M1297,-687.88C1297,-667.15 1297,-631.95 1297,-607.42"/>
<polygon fill="#b24906" stroke="#b24906" points="1300.5,-607.31 1297,-597.31 1293.5,-607.31 1300.5,-607.31"/>
</a>
</g>
<g id="a_edge23&#45;label"><a xlink:title="net.mustCIDR &#45;&gt; net.ParseCIDR (4.01kB)">
<text text-anchor="middle" x="1324.5" y="-626.3" font-family="Times,serif" font-size="14.00"> 4.01kB</text>
</a>
</g>
</g>
<!-- N13 -->
<g id="node13" class="node">
<title>N13</title>
<g id="a_node13"><a xlink:title="os/signal.Notify.func1 (4.05kB)">
<polygon fill="#eddfd6" stroke="#b24805" points="816.5,-728 715.5,-728 715.5,-684 816.5,-684 816.5,-728"/>
<text text-anchor="middle" x="766" y="-717.6" font-family="Times,serif" font-size="8.00">signal</text>
<text text-anchor="middle" x="766" y="-708.6" font-family="Times,serif" font-size="8.00">Notify</text>
<text text-anchor="middle" x="766" y="-699.6" font-family="Times,serif" font-size="8.00">func1</text>
<text text-anchor="middle" x="766" y="-690.6" font-family="Times,serif" font-size="8.00">0 of 4.05kB (19.43%)</text>
</a>
</g>
</g>
<!-- N12&#45;&gt;N13 -->
<g id="edge18" class="edge">
<title>N12&#45;&gt;N13</title>
<g id="a_edge18"><a xlink:title="os/signal.Notify &#45;&gt; os/signal.Notify.func1 (4.05kB)">
<path fill="none" stroke="#b24805" d="M766,-799.81C766,-783.42 766,-758.35 766,-738.39"/>
<polygon fill="#b24805" stroke="#b24805" points="769.5,-738.21 766,-728.21 762.5,-738.21 769.5,-738.21"/>
</a>
</g>
<g id="a_edge18&#45;label"><a xlink:title="os/signal.Notify &#45;&gt; os/signal.Notify.func1 (4.05kB)">
<text text-anchor="middle" x="793.5" y="-770.8" font-family="Times,serif" font-size="14.00"> 4.05kB</text>
</a>
</g>
</g>
<!-- N14 -->
<g id="node14" class="node">
<title>N14</title>
<g id="a_node14"><a xlink:title="os/signal.enableSignal (4.05kB)">
<polygon fill="#eddfd6" stroke="#b24805" points="816.5,-597 715.5,-597 715.5,-561 816.5,-561 816.5,-597"/>
<text text-anchor="middle" x="766" y="-586.1" font-family="Times,serif" font-size="8.00">signal</text>
<text text-anchor="middle" x="766" y="-577.1" font-family="Times,serif" font-size="8.00">enableSignal</text>
<text text-anchor="middle" x="766" y="-568.1" font-family="Times,serif" font-size="8.00">0 of 4.05kB (19.43%)</text>
</a>
</g>
</g>
<!-- N13&#45;&gt;N14 -->
<g id="edge19" class="edge">
<title>N13&#45;&gt;N14</title>
<g id="a_edge19"><a xlink:title="os/signal.Notify.func1 &#45;&gt; os/signal.enableSignal (4.05kB)">
<path fill="none" stroke="#b24805" d="M766,-683.8C766,-662.75 766,-630.4 766,-607.41"/>
<polygon fill="#b24805" stroke="#b24805" points="769.5,-607.28 766,-597.28 762.5,-607.28 769.5,-607.28"/>
</a>
</g>
<g id="a_edge19&#45;label"><a xlink:title="os/signal.Notify.func1 &#45;&gt; os/signal.enableSignal (4.05kB)">
<text text-anchor="middle" x="793.5" y="-633.8" font-family="Times,serif" font-size="14.00"> 4.05kB</text>
<text text-anchor="middle" x="793.5" y="-618.8" font-family="Times,serif" font-size="14.00"> (inline)</text>
</a>
</g>
</g>
<!-- N14&#45;&gt;N4 -->
<g id="edge20" class="edge">
<title>N14&#45;&gt;N4</title>
<g id="a_edge20"><a xlink:title="os/signal.enableSignal &#45;&gt; os/signal.signal_enable (4.05kB)">
<path fill="none" stroke="#b24805" d="M766,-560.9C766,-546.96 766,-526.52 766,-507.31"/>
<polygon fill="#b24805" stroke="#b24805" points="769.5,-507.11 766,-497.11 762.5,-507.11 769.5,-507.11"/>
</a>
</g>
<g id="a_edge20&#45;label"><a xlink:title="os/signal.enableSignal &#45;&gt; os/signal.signal_enable (4.05kB)">
<text text-anchor="middle" x="793.5" y="-531.8" font-family="Times,serif" font-size="14.00"> 4.05kB</text>
</a>
</g>
</g>
<!-- N15&#45;&gt;N10 -->
<g id="edge24" class="edge">
<title>N15&#45;&gt;N10</title>
<g id="a_edge24"><a xlink:title="runtime.doInit &#45;&gt; net.init (4.01kB)">
<path fill="none" stroke="#b24906" d="M1297,-890.84C1297,-878.28 1297,-860.98 1297,-846.5"/>
<polygon fill="#b24906" stroke="#b24906" points="1300.5,-846.11 1297,-836.11 1293.5,-846.11 1300.5,-846.11"/>
</a>
</g>
<g id="a_edge24&#45;label"><a xlink:title="runtime.doInit &#45;&gt; net.init (4.01kB)">
<text text-anchor="middle" x="1324.5" y="-857.8" font-family="Times,serif" font-size="14.00"> 4.01kB</text>
</a>
</g>
</g>
<!-- N17 -->
<g id="node17" class="node">
<title>N17</title>
<g id="a_node17"><a xlink:title="runtime.mstart1 (4.52kB)">
<polygon fill="#edded5" stroke="#b24100" points="993.5,-836 892.5,-836 892.5,-800 993.5,-800 993.5,-836"/>
<text text-anchor="middle" x="943" y="-825.1" font-family="Times,serif" font-size="8.00">runtime</text>
<text text-anchor="middle" x="943" y="-816.1" font-family="Times,serif" font-size="8.00">mstart1</text>
<text text-anchor="middle" x="943" y="-807.1" font-family="Times,serif" font-size="8.00">0 of 4.52kB (21.70%)</text>
</a>
</g>
</g>
<!-- N16&#45;&gt;N17 -->
<g id="edge7" class="edge">
<title>N16&#45;&gt;N17</title>
<g id="a_edge7"><a xlink:title="runtime.mstart0 &#45;&gt; runtime.mstart1 (4.52kB)">
<path fill="none" stroke="#b24100" stroke-width="2" d="M943,-890.84C943,-878.28 943,-860.98 943,-846.5"/>
<polygon fill="#b24100" stroke="#b24100" stroke-width="2" points="946.5,-846.11 943,-836.11 939.5,-846.11 946.5,-846.11"/>
</a>
</g>
<g id="a_edge7&#45;label"><a xlink:title="runtime.mstart0 &#45;&gt; runtime.mstart1 (4.52kB)">
<text text-anchor="middle" x="970.5" y="-857.8" font-family="Times,serif" font-size="14.00"> 4.52kB</text>
</a>
</g>
</g>
<!-- N22 -->
<g id="node22" class="node">
<title>N22</title>
<g id="a_node22"><a xlink:title="runtime.schedule (4.52kB)">
<polygon fill="#edded5" stroke="#b24100" points="993.5,-724 892.5,-724 892.5,-688 993.5,-688 993.5,-724"/>
<text text-anchor="middle" x="943" y="-713.1" font-family="Times,serif" font-size="8.00">runtime</text>
<text text-anchor="middle" x="943" y="-704.1" font-family="Times,serif" font-size="8.00">schedule</text>
<text text-anchor="middle" x="943" y="-695.1" font-family="Times,serif" font-size="8.00">0 of 4.52kB (21.70%)</text>
</a>
</g>
</g>
<!-- N17&#45;&gt;N22 -->
<g id="edge8" class="edge">
<title>N17&#45;&gt;N22</title>
<g id="a_edge8"><a xlink:title="runtime.mstart1 &#45;&gt; runtime.schedule (4.52kB)">
<path fill="none" stroke="#b24100" stroke-width="2" d="M943,-799.81C943,-782.21 943,-754.61 943,-734.07"/>
<polygon fill="#b24100" stroke="#b24100" stroke-width="2" points="946.5,-734.07 943,-724.07 939.5,-734.07 946.5,-734.07"/>
</a>
</g>
<g id="a_edge8&#45;label"><a xlink:title="runtime.mstart1 &#45;&gt; runtime.schedule (4.52kB)">
<text text-anchor="middle" x="970.5" y="-770.8" font-family="Times,serif" font-size="14.00"> 4.52kB</text>
</a>
</g>
</g>
<!-- N18 -->
<g id="node18" class="node">
<title>N18</title>
<g id="a_node18"><a xlink:title="runtime.newm (4.52kB)">
<polygon fill="#edded5" stroke="#b24100" points="993.5,-260 892.5,-260 892.5,-224 993.5,-224 993.5,-260"/>
<text text-anchor="middle" x="943" y="-249.1" font-family="Times,serif" font-size="8.00">runtime</text>
<text text-anchor="middle" x="943" y="-240.1" font-family="Times,serif" font-size="8.00">newm</text>
<text text-anchor="middle" x="943" y="-231.1" font-family="Times,serif" font-size="8.00">0 of 4.52kB (21.70%)</text>
</a>
</g>
</g>
<!-- N18&#45;&gt;N2 -->
<g id="edge9" class="edge">
<title>N18&#45;&gt;N2</title>
<g id="a_edge9"><a xlink:title="runtime.newm &#45;&gt; runtime.allocm (4.52kB)">
<path fill="none" stroke="#b24100" stroke-width="2" d="M943,-223.81C943,-212.82 943,-197.91 943,-183.26"/>
<polygon fill="#b24100" stroke="#b24100" stroke-width="2" points="946.5,-183.21 943,-173.21 939.5,-183.21 946.5,-183.21"/>
</a>
</g>
<g id="a_edge9&#45;label"><a xlink:title="runtime.newm &#45;&gt; runtime.allocm (4.52kB)">
<text text-anchor="middle" x="970.5" y="-194.8" font-family="Times,serif" font-size="14.00"> 4.52kB</text>
</a>
</g>
</g>
<!-- N20 -->
<g id="node20" class="node">
<title>N20</title>
<g id="a_node20"><a xlink:title="runtime.newproc1 (4.21kB)">
<polygon fill="#edded5" stroke="#b24400" points="1170.5,-836 1069.5,-836 1069.5,-800 1170.5,-800 1170.5,-836"/>
<text text-anchor="middle" x="1120" y="-825.1" font-family="Times,serif" font-size="8.00">runtime</text>
<text text-anchor="middle" x="1120" y="-816.1" font-family="Times,serif" font-size="8.00">newproc1</text>
<text text-anchor="middle" x="1120" y="-807.1" font-family="Times,serif" font-size="8.00">0 of 4.21kB (20.19%)</text>
</a>
</g>
</g>
<!-- N19&#45;&gt;N20 -->
<g id="edge14" class="edge">
<title>N19&#45;&gt;N20</title>
<g id="a_edge14"><a xlink:title="runtime.newproc.func1 &#45;&gt; runtime.newproc1 (4.21kB)">
<path fill="none" stroke="#b24400" stroke-width="2" d="M1120,-886.91C1120,-874.78 1120,-859.41 1120,-846.36"/>
<polygon fill="#b24400" stroke="#b24400" stroke-width="2" points="1123.5,-846.07 1120,-836.07 1116.5,-846.07 1123.5,-846.07"/>
</a>
</g>
<g id="a_edge14&#45;label"><a xlink:title="runtime.newproc.func1 &#45;&gt; runtime.newproc1 (4.21kB)">
<text text-anchor="middle" x="1147.5" y="-857.8" font-family="Times,serif" font-size="14.00"> 4.21kB</text>
</a>
</g>
</g>
<!-- N20&#45;&gt;N3 -->
<g id="edge15" class="edge">
<title>N20&#45;&gt;N3</title>
<g id="a_edge15"><a xlink:title="runtime.newproc1 &#45;&gt; runtime.malg (4.21kB)">
<path fill="none" stroke="#b24400" stroke-width="2" d="M1120,-799.81C1120,-788.82 1120,-773.91 1120,-759.26"/>
<polygon fill="#b24400" stroke="#b24400" stroke-width="2" points="1123.5,-759.21 1120,-749.21 1116.5,-759.21 1123.5,-759.21"/>
</a>
</g>
<g id="a_edge15&#45;label"><a xlink:title="runtime.newproc1 &#45;&gt; runtime.malg (4.21kB)">
<text text-anchor="middle" x="1147.5" y="-770.8" font-family="Times,serif" font-size="14.00"> 4.21kB</text>
</a>
</g>
</g>
<!-- N21 -->
<g id="node21" class="node">
<title>N21</title>
<g id="a_node21"><a xlink:title="runtime.resetspinning (4.52kB)">
<polygon fill="#edded5" stroke="#b24100" points="993.5,-597 892.5,-597 892.5,-561 993.5,-561 993.5,-597"/>
<text text-anchor="middle" x="943" y="-586.1" font-family="Times,serif" font-size="8.00">runtime</text>
<text text-anchor="middle" x="943" y="-577.1" font-family="Times,serif" font-size="8.00">resetspinning</text>
<text text-anchor="middle" x="943" y="-568.1" font-family="Times,serif" font-size="8.00">0 of 4.52kB (21.70%)</text>
</a>
</g>
</g>
<!-- N24 -->
<g id="node24" class="node">
<title>N24</title>
<g id="a_node24"><a xlink:title="runtime.wakep (4.52kB)">
<polygon fill="#edded5" stroke="#b24100" points="993.5,-472 892.5,-472 892.5,-436 993.5,-436 993.5,-472"/>
<text text-anchor="middle" x="943" y="-461.1" font-family="Times,serif" font-size="8.00">runtime</text>
<text text-anchor="middle" x="943" y="-452.1" font-family="Times,serif" font-size="8.00">wakep</text>
<text text-anchor="middle" x="943" y="-443.1" font-family="Times,serif" font-size="8.00">0 of 4.52kB (21.70%)</text>
</a>
</g>
</g>
<!-- N21&#45;&gt;N24 -->
<g id="edge10" class="edge">
<title>N21&#45;&gt;N24</title>
<g id="a_edge10"><a xlink:title="runtime.resetspinning &#45;&gt; runtime.wakep (4.52kB)">
<path fill="none" stroke="#b24100" stroke-width="2" d="M943,-560.9C943,-540.63 943,-506.6 943,-482.59"/>
<polygon fill="#b24100" stroke="#b24100" stroke-width="2" points="946.5,-482.35 943,-472.35 939.5,-482.35 946.5,-482.35"/>
</a>
</g>
<g id="a_edge10&#45;label"><a xlink:title="runtime.resetspinning &#45;&gt; runtime.wakep (4.52kB)">
<text text-anchor="middle" x="970.5" y="-531.8" font-family="Times,serif" font-size="14.00"> 4.52kB</text>
</a>
</g>
</g>
<!-- N22&#45;&gt;N21 -->
<g id="edge11" class="edge">
<title>N22&#45;&gt;N21</title>
<g id="a_edge11"><a xlink:title="runtime.schedule &#45;&gt; runtime.resetspinning (4.52kB)">
<path fill="none" stroke="#b24100" stroke-width="2" d="M943,-687.88C943,-667.15 943,-631.95 943,-607.42"/>
<polygon fill="#b24100" stroke="#b24100" stroke-width="2" points="946.5,-607.31 943,-597.31 939.5,-607.31 946.5,-607.31"/>
</a>
</g>
<g id="a_edge11&#45;label"><a xlink:title="runtime.schedule &#45;&gt; runtime.resetspinning (4.52kB)">
<text text-anchor="middle" x="970.5" y="-626.3" font-family="Times,serif" font-size="14.00"> 4.52kB</text>
</a>
</g>
</g>
<!-- N23 -->
<g id="node23" class="node">
<title>N23</title>
<g id="a_node23"><a xlink:title="runtime.startm (4.52kB)">
<polygon fill="#edded5" stroke="#b24100" points="993.5,-347 892.5,-347 892.5,-311 993.5,-311 993.5,-347"/>
<text text-anchor="middle" x="943" y="-336.1" font-family="Times,serif" font-size="8.00">runtime</text>
<text text-anchor="middle" x="943" y="-327.1" font-family="Times,serif" font-size="8.00">startm</text>
<text text-anchor="middle" x="943" y="-318.1" font-family="Times,serif" font-size="8.00">0 of 4.52kB (21.70%)</text>
</a>
</g>
</g>
<!-- N23&#45;&gt;N18 -->
<g id="edge12" class="edge">
<title>N23&#45;&gt;N18</title>
<g id="a_edge12"><a xlink:title="runtime.startm &#45;&gt; runtime.newm (4.52kB)">
<path fill="none" stroke="#b24100" stroke-width="2" d="M943,-310.8C943,-299.16 943,-283.55 943,-270.24"/>
<polygon fill="#b24100" stroke="#b24100" stroke-width="2" points="946.5,-270.18 943,-260.18 939.5,-270.18 946.5,-270.18"/>
</a>
</g>
<g id="a_edge12&#45;label"><a xlink:title="runtime.startm &#45;&gt; runtime.newm (4.52kB)">
<text text-anchor="middle" x="970.5" y="-281.8" font-family="Times,serif" font-size="14.00"> 4.52kB</text>
</a>
</g>
</g>
<!-- N24&#45;&gt;N23 -->
<g id="edge13" class="edge">
<title>N24&#45;&gt;N23</title>
<g id="a_edge13"><a xlink:title="runtime.wakep &#45;&gt; runtime.startm (4.52kB)">
<path fill="none" stroke="#b24100" stroke-width="2" d="M943,-435.9C943,-415.63 943,-381.6 943,-357.59"/>
<polygon fill="#b24100" stroke="#b24100" stroke-width="2" points="946.5,-357.35 943,-347.35 939.5,-357.35 946.5,-357.35"/>
</a>
</g>
<g id="a_edge13&#45;label"><a xlink:title="runtime.wakep &#45;&gt; runtime.startm (4.52kB)">
<text text-anchor="middle" x="970.5" y="-368.8" font-family="Times,serif" font-size="14.00"> 4.52kB</text>
</a>
</g>
</g>
</g>
</g></svg>
